<svg width="161" height="60" viewBox="0 0 161 60" fill="none" xmlns="http://www.w3.org/2000/svg">
<path d="M42.8569 30.1218C42.9441 29.8942 42.9441 29.6423 42.8569 29.4147C42.8127 29.318 42.7417 29.2361 42.6524 29.1786C42.5631 29.1212 42.4594 29.0906 42.3533 29.0906C42.2472 29.0906 42.1433 29.1212 42.054 29.1786C41.9647 29.2361 41.8938 29.318 41.8496 29.4147C40.8925 31.296 37.2406 36.3841 33.5762 36.7124C31.8762 36.8639 30.9192 35.4498 30.9192 33.2403C30.9192 32.7984 30.9193 32.3565 31.0075 31.9146C35.5785 33.0888 40.6281 28.5941 40.6281 23.5185C40.6629 22.8965 40.5661 22.2741 40.3441 21.6922C40.122 21.1103 39.7798 20.582 39.3398 20.1421C38.8998 19.7021 38.3721 19.3604 37.7911 19.1394C37.2102 18.9184 36.5891 18.823 35.9688 18.8596C31.4103 19.2636 26.6881 25.4629 26.1718 32.508C25.1896 34.0105 23.9557 35.6266 23.175 35.6897C21.4246 35.8412 23.6031 29.5662 24.8623 25.6649C25.6431 23.1397 25.1645 19.8192 22.5075 20.0591C20.4675 20.2358 18.4149 22.7105 16.8031 25.627C17.2438 23.3039 16.6772 20.5767 14.2846 20.7787C12.3706 20.9555 10.3558 23.2029 8.79431 25.9805C9.00838 25.3114 9.18461 24.718 9.36091 24.2634C10.0535 22.3948 6.35137 21.1322 5.18027 23.6574C3.92102 26.4729 0.949219 37.3058 0.949219 39.7299C0.949219 42.5455 4.57585 43.3283 4.87806 41.3713C5.12991 39.8436 5.78473 36.8765 6.61583 33.7958C7.69879 30.3995 10.3935 25.9679 11.5772 25.8669C12.1439 25.8669 11.7157 27.7103 11.4513 28.6572C10.3788 32.0466 9.60354 35.5235 9.13433 39.0481C9.13433 41.8637 12.761 42.6465 13.0632 40.6769C13.2772 39.2502 13.9321 36.4094 14.675 33.4802C15.6699 29.9955 18.6416 25.2356 19.8127 25.1346C20.3794 25.1346 19.9387 26.978 19.6868 27.9249C18.6794 31.3212 17.3697 35.5003 17.3697 38.0255C17.3697 39.9698 18.0246 41.144 19.5483 41.0178C21.8905 40.8031 24.4341 37.5709 26.197 34.8438C26.2312 35.592 26.4217 36.3247 26.756 36.9946C27.0902 37.6644 27.5609 38.2565 28.1377 38.7325C28.7145 39.2085 29.3846 39.5578 30.1045 39.7579C30.8244 39.958 31.5781 40.0044 32.317 39.8941C37.7191 39.389 41.5095 32.5333 42.8569 30.1218ZM36.1199 21.8645C36.5984 21.8645 36.9385 22.2686 36.9385 22.8493C36.9385 25.8038 33.7525 29.9197 31.4103 29.7682C32.4051 25.6649 34.8481 21.9655 36.1199 21.8645Z" fill="#EFEEE1"/>
<path d="M143.949 38.7956C141.343 30.3364 146.002 17.7233 146.632 15.2739C147.261 12.8245 142.854 11.3347 141.255 14.5669C140.745 15.5878 140.295 16.6375 139.907 17.7107C140.411 15.0466 139.466 12.0039 136.318 12.3069C133.17 12.6099 129.607 15.5517 127.05 21.5615L126.018 22.3443C125.18 22.9615 124.305 23.5265 123.398 24.0362C124.498 21.1456 125.136 18.0989 125.287 15.0088C125.287 13.6704 124.494 12.9255 123.398 13.0265C119.507 13.3674 117.845 20.4126 117.845 23.6574C117.835 24.4173 117.972 25.1719 118.248 25.8795C115.956 31.5232 113.211 36.2831 111.612 36.4346C110.013 36.5861 111.839 27.2052 114.987 17.7612C115.793 15.3244 109.836 13.6452 108.69 17.0415C106.966 21.828 105.75 26.7837 105.064 31.8262C103.805 33.6822 102.281 35.5256 100.908 35.6139C98.8432 35.8033 100.052 31.1697 101.299 26.5992C104.346 15.7284 107.721 6.73892 108.288 4.71881C109.03 2.19366 104.17 0.501817 102.734 3.93601C101.878 6.22127 98.1506 17.5465 95.8713 25.3997C95.3299 27.2431 94.7127 29.1875 94.1838 31.2076C92.8113 33.4549 90.7209 36.523 89.4617 36.624C86.2506 36.9144 92.6602 21.107 93.1765 19.6677C94.0958 17.2183 89.3988 15.6653 87.6736 18.8849C87.1616 19.9037 86.7033 20.9489 86.3009 22.016C86.8172 19.3646 85.9107 16.3218 82.7625 16.5996C78.8085 16.9531 74.3382 21.2838 71.7693 30.4879C71.485 31.4892 71.2538 32.5049 71.0767 33.5307C70.4848 33.5307 69.893 33.5307 69.3767 33.5307L68.0418 33.6317L67.9664 33.4676C66.6589 30.7562 64.8069 28.3448 62.5265 26.3845C60.6557 24.6886 58.6742 23.1196 56.5953 21.6878C53.7117 19.6172 51.5583 18.1273 51.3946 16.0188C51.3767 14.5421 51.9062 13.1113 52.8806 12.0038C56.4191 7.29446 60.0206 4.99658 62.0228 4.81982C62.4041 4.74305 62.8002 4.79874 63.1458 4.97774C63.4914 5.15673 63.766 5.44836 63.9242 5.80462V6.01926C62.665 9.51658 65.1835 11.663 67.702 11.5493C72.336 11.3473 73.6077 4.90819 70.8752 1.85277C70.1903 1.15204 69.3488 0.625039 68.4203 0.315448C67.4918 0.00585735 66.503 -0.0774111 65.536 0.0725412C64.3459 0.202745 63.1776 0.487091 62.0604 0.918467C56.6438 3.04961 51.7944 6.41209 47.8939 10.7413C45.1865 13.7336 43.9399 16.082 43.965 18.1273C43.965 21.208 46.811 23.6826 51.0924 27.4199L52.6287 28.7834C53.5857 29.6546 54.4924 30.4374 55.3613 31.1949C56.6205 32.306 57.7161 33.2529 58.6353 34.1999L59.0257 34.6165L58.4464 34.7175C42.3658 37.4068 36.3214 42.293 34.5207 44.2626C29.2192 49.8936 32.9215 60.2467 47.491 58.9463C50.2754 58.7043 52.9996 57.9959 55.5502 56.8504C63.9998 52.9364 68.7094 46.2574 68.8101 36.3336H69.0241C69.5026 36.22 70.1071 36.0937 70.7745 35.9801C70.3337 41.649 72.336 44.8939 75.4086 44.6161C78.4811 44.3383 80.4454 41.6869 82.2084 39.2123V39.7804C82.2084 42.3056 82.9136 43.8838 84.9158 43.707C87.7491 43.4545 90.784 39.7173 93.0506 36.2957C92.9179 37.1311 92.8463 37.9751 92.8365 38.8209C92.8365 41.346 93.9195 42.899 96.2114 42.697C99.4602 42.4066 102.633 38.7325 104.925 35.3362C105.139 39.8562 107.444 41.649 110.516 41.4344C114.987 41.0304 119.57 34.0231 122.366 26.8896C123.242 26.5477 124.086 26.125 124.884 25.627C125.199 25.4502 125.514 25.2482 125.829 25.0336C125.703 25.425 125.59 25.8416 125.476 26.2962C123.084 35.2225 126.559 40.6264 130.513 40.2476C133.447 39.9698 136.482 37.5331 138.258 35.1973C138.191 37.1084 138.469 39.0157 139.076 40.8284C124.494 46.7877 93.5795 53.7697 77.9145 48.9593C75.6226 48.2523 73.8848 47.4821 73.91 50.4744C73.91 54.9692 77.9522 57.9489 83.8581 57.8983C96.2365 57.5953 122.819 50.4113 140.247 43.303C143.899 47.0907 148.747 47.3685 153.557 46.3332C162.788 44.2752 161.465 32.912 143.949 38.7956ZM60.7131 42.3056C56.3057 55.8404 34.5081 55.3732 38.7769 48.0882C40.8169 44.6035 55.3236 38.6441 60.9398 38.076H61.1916V38.3285C61.316 39.6732 61.1529 41.0291 60.7131 42.3056ZM82.9262 31.4222C81.1507 36.8513 78.7455 40.8284 77.4862 40.2602C76.227 39.6921 76.6803 34.9448 78.4558 29.5157C80.2314 24.0867 82.6996 20.1096 83.8959 20.5767C85.0922 21.0439 84.7018 25.8921 82.9262 31.3717V31.4222ZM136.658 27.0537C134.933 32.4954 132.566 36.4977 131.294 35.9801C130.022 35.4624 130.45 30.6647 132.188 25.2356C133.926 19.8065 136.344 15.7789 137.552 16.2461C138.761 16.7132 138.396 21.5615 136.658 27.0032V27.0537ZM152.739 44.7297C151.223 45.0198 149.656 44.8377 148.246 44.208C146.837 43.5782 145.654 42.531 144.856 41.2071C155.711 36.6619 159.589 43.1515 152.739 44.6287V44.7297Z" fill="#EFEEE1"/>
<path d="M155.761 1.38563C153.772 8.96107 152.411 13.3801 149.754 21.3595C149.125 23.2281 152.411 24.5033 152.903 23.5817C156.068 16.9493 158.753 10.0968 160.937 3.07748C161.617 0.95636 156.529 -1.56878 155.761 1.38563Z" fill="#EFEEE1"/>
<path d="M148.835 33.0509C149.742 32.9053 150.586 32.4926 151.258 31.8655C151.931 31.2383 152.402 30.4248 152.613 29.5283C153.041 27.7229 152.034 26.3972 150.334 26.5487C149.432 26.7027 148.595 27.1167 147.924 27.74C147.253 28.3633 146.778 29.169 146.556 30.0586C146.128 31.8641 147.148 33.2024 148.835 33.0509Z" fill="#EFEEE1"/>
</svg>
