<?xml version="1.0" encoding="UTF-8" standalone="no"?>
<svg
   xmlns:dc="http://purl.org/dc/elements/1.1/"
   xmlns:cc="http://creativecommons.org/ns#"
   xmlns:rdf="http://www.w3.org/1999/02/22-rdf-syntax-ns#"
   xmlns:svg="http://www.w3.org/2000/svg"
   xmlns="http://www.w3.org/2000/svg"
   xmlns:sodipodi="http://sodipodi.sourceforge.net/DTD/sodipodi-0.dtd"
   xmlns:inkscape="http://www.inkscape.org/namespaces/inkscape"
   width="40"
   height="40"
   viewBox="0 0 40 40"
   version="1.1"
   id="svg21"
   sodipodi:docname="avatar.svg"
   inkscape:version="0.92.1 r15371">
  <metadata
     id="metadata25">
    <rdf:RDF>
      <cc:Work
         rdf:about="">
        <dc:format>image/svg+xml</dc:format>
        <dc:type
           rdf:resource="http://purl.org/dc/dcmitype/StillImage" />
        <dc:title></dc:title>
      </cc:Work>
    </rdf:RDF>
  </metadata>
  <sodipodi:namedview
     pagecolor="#ffffff"
     bordercolor="#666666"
     borderopacity="1"
     objecttolerance="10"
     gridtolerance="10"
     guidetolerance="10"
     inkscape:pageopacity="0"
     inkscape:pageshadow="2"
     inkscape:window-width="1366"
     inkscape:window-height="728"
     id="namedview23"
     showgrid="false"
     inkscape:zoom="7.375"
     inkscape:cx="13.627119"
     inkscape:cy="16"
     inkscape:window-x="0"
     inkscape:window-y="0"
     inkscape:window-maximized="1"
     inkscape:current-layer="svg21" />
  <defs
     id="defs4">
    <clipPath
       id="clip-path">
      <circle
         id="Elipse_513"
         data-name="Elipse 513"
         cx="16"
         cy="16"
         r="16"
         transform="translate(4583,-7191)"
         style="fill:#ffffff" />
    </clipPath>
  </defs>
  <rect
     style="opacity:1;vector-effect:none;fill:#ed4343;fill-opacity:1;stroke:none;stroke-width:1.41829836;stroke-linecap:square;stroke-linejoin:miter;stroke-miterlimit:5;stroke-dasharray:none;stroke-dashoffset:0;stroke-opacity:1"
     id="rect4513"
     width="40"
     height="40"
     x="0"
     y="0" />
  <g
     id="MS2020_UX_Home_Avatar_Mobo"
     transform="translate(-262,-12)">
    <g
       id="MS2020_UX_Home_Avatar_Mobo-2"
       data-name="MS2020_UX_Home_Avatar_Mobo"
       transform="translate(-4317,7207)"
       clip-path="url(#clip-path)">
      <circle
         id="Elipse_511"
         data-name="Elipse 511"
         cx="16"
         cy="16"
         r="16"
         transform="translate(4583,-7191)"
         style="fill:#ffffff" />
      <path
         id="Caminho_598"
         data-name="Caminho 598"
         d="m 625.406,669 a 7.014,7.014 0 1 0 -9.858,0 8.048,8.048 0 0 0 -4.673,7.294 v 2.6 c 0,1.1 2.017,9.386 3.113,9.386 h 13.731 c 1.1,0 2.359,-8.291 2.359,-9.386 v -2.6 A 8.048,8.048 0 0 0 625.406,669 Z m 0,0"
         transform="translate(3981.906,-7843.801)"
         inkscape:connector-curvature="0"
         style="fill:#e6e7e8" />
      <path
         id="Caminho_599"
         data-name="Caminho 599"
         d="m 612.4,700.438 a 5.3,5.3 0 0 1 -6.1,0 6.174,6.174 0 0 0 -4.428,5.92 v 2.172 a 1.106,1.106 0 0 0 1.106,1.106 h 12.742 a 1.106,1.106 0 0 0 1.106,-1.106 v -2.172 a 6.174,6.174 0 0 0 -4.428,-5.92 z m 0,0"
         transform="translate(3987.624,-7875.268)"
         inkscape:connector-curvature="0"
         style="fill:none" />
      <path
         id="Caminho_602"
         data-name="Caminho 602"
         d="m 4589.867,-7158.735 0.443,-9.45 2.762,-2.748 1.655,-1.235 2.722,1.235 4.742,-1.235 2.542,1.235 2.249,2.748 0.65,4.737 v 3.6 l -9.183,1.768 z"
         transform="translate(-0.198,-0.156)"
         inkscape:connector-curvature="0"
         style="fill:#ed4343" />
      <g
         id="Grupo_1883"
         data-name="Grupo 1883"
         transform="translate(4588.95,-7184.706)">
        <path
           id="Caminho_600"
           data-name="Caminho 600"
           d="m 626.322,654.387 a 6.352,6.352 0 1 1 -6.353,-6.352 6.352,6.352 0 0 1 6.353,6.352 z m 0,0"
           transform="translate(-610.369,-647.366)"
           inkscape:connector-curvature="0"
           style="fill:#ffffff" />
        <path
           id="Caminho_601"
           data-name="Caminho 601"
           d="m 613.406,657.008 a 7.015,7.015 0 1 0 -9.852,0 8.043,8.043 0 0 0 -4.675,7.291 v 2.6 c 0,1.1 1,3.683 2.1,3.683 h 15.781 c 1.1,0 1.323,-2.588 1.323,-3.683 v -2.6 a 8.042,8.042 0 0 0 -4.675,-7.293 z m -10.618,-4.985 a 5.692,5.692 0 1 1 5.691,5.691 5.692,5.692 0 0 1 -5.691,-5.691 z m 13.97,14.878 c 0,0.365 -0.3,3.683 -0.661,3.683 h -14.106 c -0.365,0 -1.79,-3.318 -1.79,-3.683 v -2.6 a 6.722,6.722 0 0 1 4.544,-6.347 6.959,6.959 0 0 0 7.472,0 6.725,6.725 0 0 1 4.544,6.347 z m 0.547,3.683"
           transform="translate(-598.879,-645)"
           inkscape:connector-curvature="0"
           style="fill:#333333" />
      </g>
      <circle
         id="Elipse_512"
         data-name="Elipse 512"
         cx="16"
         cy="16"
         r="16"
         transform="translate(4583,-7191)"
         style="fill:none" />
    </g>
    <g
       id="Elipse_510"
       data-name="Elipse 510"
       transform="translate(266,16)"
       style="fill:none;stroke:#333333;stroke-width:1">
      <circle
         cx="16"
         cy="16"
         r="16"
         id="circle15"
         style="stroke:none" />
      <circle
         cx="16"
         cy="16"
         r="15.5"
         id="circle17"
         style="fill:none" />
    </g>
  </g>
</svg>
